<svg xmlns="http://www.w3.org/2000/svg" viewBox="0 0 64 64" role="img" aria-hidden="true">
  <defs>
    <linearGradient id="gold" x1="10" y1="6" x2="54" y2="58" gradientUnits="userSpaceOnUse">
      <stop offset="0" stop-color="#fff6cf"/>
      <stop offset="0.18" stop-color="#ffd97c"/>
      <stop offset="0.52" stop-color="#b87a27"/>
      <stop offset="1" stop-color="#4b2a09"/>
    </linearGradient>
    <linearGradient id="edge" x1="8" y1="4" x2="56" y2="60" gradientUnits="userSpaceOnUse">
      <stop offset="0" stop-color="#fff0af"/>
      <stop offset="0.38" stop-color="#d69a39"/>
      <stop offset="1" stop-color="#2a1503"/>
    </linearGradient>
    <radialGradient id="shine" cx="31%" cy="20%" r="46%">
      <stop offset="0" stop-color="#fffbe3" stop-opacity="0.95"/>
      <stop offset="0.28" stop-color="#fff0aa" stop-opacity="0.56"/>
      <stop offset="1" stop-color="#ffffff" stop-opacity="0"/>
    </radialGradient>
    <filter id="shadow" x="-30%" y="-30%" width="160%" height="160%">
      <feDropShadow dx="0" dy="2" stdDeviation="1.4" flood-color="#000000" flood-opacity="0.75"/>
    </filter>
  </defs>
  <g filter="url(#shadow)" stroke="#2b1605" stroke-width="1.35" stroke-linejoin="round">
    <path d="M32 4 L46 9 L58 22 L60 39 L51 53 L35 60 L19 56 L6 44 L4 27 L13 12 Z" fill="url(#gold)"/>
    <path d="M32 4 L46 9 L39 24 L25 22 L13 12 Z" fill="#f8c65c" opacity="0.55"/>
    <path d="M46 9 L58 22 L48 34 L39 24 Z" fill="#b87829" opacity="0.48"/>
    <path d="M58 22 L60 39 L47 44 L48 34 Z" fill="#7b4914" opacity="0.55"/>
    <path d="M60 39 L51 53 L35 60 L39 47 L47 44 Z" fill="#58300a" opacity="0.46"/>
    <path d="M35 60 L19 56 L17 42 L39 47 Z" fill="#8d5a1d" opacity="0.5"/>
    <path d="M19 56 L6 44 L17 42 Z" fill="#a26d24" opacity="0.48"/>
    <path d="M6 44 L4 27 L17 30 L17 42 Z" fill="#c1872e" opacity="0.42"/>
    <path d="M4 27 L13 12 L25 22 L17 30 Z" fill="#e1a946" opacity="0.43"/>
    <path d="M25 22 L39 24 L48 34 L47 44 L39 47 L17 42 L17 30 Z" fill="#d59a38" opacity="0.22"/>
    <path d="M25 22 L39 24 L48 34 L47 44 L39 47 L17 42 L17 30 Z" fill="none" stroke="#fff1ad" stroke-opacity="0.18"/>
    <path d="M32 4 L46 9 L58 22 L60 39 L51 53 L35 60 L19 56 L6 44 L4 27 L13 12 Z" fill="url(#shine)" opacity="0.7"/>
  </g>
</svg>
