<svg xmlns="http://www.w3.org/2000/svg" viewBox="0 0 64 64" role="img" aria-hidden="true">
  <defs>
    <linearGradient id="gold" x1="10" y1="6" x2="54" y2="58" gradientUnits="userSpaceOnUse">
      <stop offset="0" stop-color="#fff6cf"/>
      <stop offset="0.18" stop-color="#ffd97c"/>
      <stop offset="0.52" stop-color="#b87a27"/>
      <stop offset="1" stop-color="#4b2a09"/>
    </linearGradient>
    <linearGradient id="edge" x1="8" y1="4" x2="56" y2="60" gradientUnits="userSpaceOnUse">
      <stop offset="0" stop-color="#fff0af"/>
      <stop offset="0.38" stop-color="#d69a39"/>
      <stop offset="1" stop-color="#2a1503"/>
    </linearGradient>
    <radialGradient id="shine" cx="31%" cy="20%" r="46%">
      <stop offset="0" stop-color="#fffbe3" stop-opacity="0.95"/>
      <stop offset="0.28" stop-color="#fff0aa" stop-opacity="0.56"/>
      <stop offset="1" stop-color="#ffffff" stop-opacity="0"/>
    </radialGradient>
    <filter id="shadow" x="-30%" y="-30%" width="160%" height="160%">
      <feDropShadow dx="0" dy="2" stdDeviation="1.4" flood-color="#000000" flood-opacity="0.75"/>
    </filter>
  </defs>
  <g filter="url(#shadow)" stroke="#2b1605" stroke-width="1.45" stroke-linejoin="round">
    <path d="M18 9 L48 14 L55 45 L27 56 L9 37 Z" fill="url(#gold)"/>
    <path d="M18 9 L48 14 L34 30 L9 37 Z" fill="#ffd873" opacity="0.50"/>
    <path d="M48 14 L55 45 L34 30 Z" fill="#8f5d1e" opacity="0.50"/>
    <path d="M9 37 L34 30 L27 56 Z" fill="#b97828" opacity="0.56"/>
    <path d="M34 30 L55 45 L27 56 Z" fill="#5d3610" opacity="0.38"/>
    <path d="M18 9 L34 30 L27 56" fill="none" stroke="#fff0b0" stroke-opacity="0.25"/>
    <path d="M48 14 L34 30 L9 37" fill="none" stroke="#2c1604" stroke-opacity="0.55"/>
    <path d="M18 9 L48 14 L55 45 L27 56 L9 37 Z" fill="url(#shine)" opacity="0.7"/>
  </g>
</svg>
