<svg xmlns="http://www.w3.org/2000/svg" viewBox="0 0 64 64" role="img" aria-hidden="true">
  <defs>
    <linearGradient id="gold" x1="10" y1="6" x2="54" y2="58" gradientUnits="userSpaceOnUse">
      <stop offset="0" stop-color="#fff6cf"/>
      <stop offset="0.18" stop-color="#ffd97c"/>
      <stop offset="0.52" stop-color="#b87a27"/>
      <stop offset="1" stop-color="#4b2a09"/>
    </linearGradient>
    <linearGradient id="edge" x1="8" y1="4" x2="56" y2="60" gradientUnits="userSpaceOnUse">
      <stop offset="0" stop-color="#fff0af"/>
      <stop offset="0.38" stop-color="#d69a39"/>
      <stop offset="1" stop-color="#2a1503"/>
    </linearGradient>
    <radialGradient id="shine" cx="31%" cy="20%" r="46%">
      <stop offset="0" stop-color="#fffbe3" stop-opacity="0.95"/>
      <stop offset="0.28" stop-color="#fff0aa" stop-opacity="0.56"/>
      <stop offset="1" stop-color="#ffffff" stop-opacity="0"/>
    </radialGradient>
    <filter id="shadow" x="-30%" y="-30%" width="160%" height="160%">
      <feDropShadow dx="0" dy="2" stdDeviation="1.4" flood-color="#000000" flood-opacity="0.75"/>
    </filter>
  </defs>
  <g filter="url(#shadow)" stroke="#2b1605" stroke-width="1.05" stroke-linejoin="round">
    <path d="M32 3 L43 6 L54 14 L61 26 L61 38 L54 50 L43 58 L32 61 L21 58 L10 50 L3 38 L3 26 L10 14 L21 6 Z" fill="url(#gold)"/>
    <path d="M32 3 L43 6 L38 17 L32 14 L26 17 L21 6 Z" fill="#ffe28a" opacity="0.60"/>
    <path d="M43 6 L54 14 L47 25 L38 17 Z" fill="#d99b39" opacity="0.52"/>
    <path d="M54 14 L61 26 L49 31 L47 25 Z" fill="#ae7224" opacity="0.54"/>
    <path d="M61 26 L61 38 L49 33 L49 31 Z" fill="#805018" opacity="0.55"/>
    <path d="M61 38 L54 50 L47 39 L49 33 Z" fill="#62370d" opacity="0.50"/>
    <path d="M54 50 L43 58 L38 47 L47 39 Z" fill="#704310" opacity="0.52"/>
    <path d="M43 58 L32 61 L32 49 L38 47 Z" fill="#95611e" opacity="0.54"/>
    <path d="M32 61 L21 58 L26 47 L32 49 Z" fill="#b17625" opacity="0.50"/>
    <path d="M21 58 L10 50 L17 39 L26 47 Z" fill="#c58b30" opacity="0.48"/>
    <path d="M10 50 L3 38 L15 33 L17 39 Z" fill="#d59c3a" opacity="0.44"/>
    <path d="M3 38 L3 26 L15 31 L15 33 Z" fill="#c3872f" opacity="0.46"/>
    <path d="M3 26 L10 14 L17 25 L15 31 Z" fill="#e2ac49" opacity="0.42"/>
    <path d="M10 14 L21 6 L26 17 L17 25 Z" fill="#f0bd59" opacity="0.48"/>
    <path d="M32 14 L38 17 L47 25 L49 31 L49 33 L47 39 L38 47 L32 49 L26 47 L17 39 L15 33 L15 31 L17 25 L26 17 Z" fill="#d79a37" opacity="0.20"/>
    <path d="M32 14 L38 17 L47 25 L49 31 L49 33 L47 39 L38 47 L32 49 L26 47 L17 39 L15 33 L15 31 L17 25 L26 17 Z" fill="none" stroke="#fff0a7" stroke-opacity="0.20"/>
    <path d="M32 3 L43 6 L54 14 L61 26 L61 38 L54 50 L43 58 L32 61 L21 58 L10 50 L3 38 L3 26 L10 14 L21 6 Z" fill="url(#shine)" opacity="0.62"/>
  </g>
</svg>
